<?xml version="1.0" encoding="utf-8"?>
<!-- Generator: Adobe Illustrator 18.0.0, SVG Export Plug-In . SVG Version: 6.00 Build 0)  -->
<!DOCTYPE svg PUBLIC "-//W3C//DTD SVG 1.1//EN" "http://www.w3.org/Graphics/SVG/1.1/DTD/svg11.dtd">
<svg version="1.1" id="Layer_1" xmlns="http://www.w3.org/2000/svg" xmlns:xlink="http://www.w3.org/1999/xlink" x="0px" y="0px"
	 viewBox="0 0 1280 800" enable-background="new 0 0 1280 800" xml:space="preserve">
<path d="M784,435H515V252.8c0-21.2,17.3-38.4,38.5-38.4c19.7,0,36,14.9,38.2,34c-16.1,2.5-28.5,16.2-28.5,33c0,2.7,2.2,4.6,4.8,4.6
	h57.6c0,0,0,0,0,0c2.7,0,4.8-1.9,4.8-4.6c0-0.2,0-0.3,0-0.5c-0.3-16.7-12.9-30.4-29-32.6c-2.3-24.4-23.1-43.5-48.1-43.5
	c-26.5,0-48.3,21.6-48.3,48V435h-9c-2.7,0-4.8,1.8-4.8,4.5c0,2.7,2.1,4.5,4.8,4.5h9v83.2c0,10.9,4,21,10.3,29.1
	c2.9,3.8,6.3,7.2,10.2,9.9c7.6,5.5,16.6,8.8,26.6,9v15.2c0,2.7,1.8,4.8,4.5,4.8c2.7,0,4.5-2.2,4.5-4.8V575h157v15.4
	c0,2.7,1.8,4.8,4.5,4.8c2.7,0,4.5-2.2,4.5-4.8v-15.2c26-0.5,47-21.9,47-48V444h10c2.7,0,4.8-1.8,4.8-4.5
	C788.8,436.8,786.7,435,784,435z M620.3,276h-47c2.2-11,11.9-19.2,23.5-19.2C608.4,256.8,618.1,265,620.3,276z M515,444h249v24.7
	c-3,0.1-5.7,1.1-8.4,3.1c-0.7,0.5-1.2,1-1.8,1.5c-0.3,0.2-0.5,0.5-0.8,0.7l-0.1,0.1c-2.2,1.8-3.4,2.7-5.8,2.7
	c-2.5,0-3.9-1.1-6.5-3.1c-0.8-0.6-1.6-1.2-2.4-1.9l-4.2-2.2l-2.3-0.6l-2-0.2l-2.7,0.2l-2.1,0.6l-1.7,0.7l-2.4,1.3l-0.4,0.3
	c-0.9,0.6-1.7,1.3-2.5,1.9c-2.4,2-3.8,3-6.3,3c-2.5,0-4-1.1-6.6-3.2c-0.7-0.6-1.5-1.2-2.3-1.8c-1.9-1.3-3.8-2.2-5.9-2.6l-0.9-0.2
	l-0.7-0.1c-1.3-0.1-2.4-0.1-3.6,0.1l-1.5,0.3c-2.1,0.5-4,1.3-5.6,2.5c-1,0.7-1.8,1.4-2.6,2c-2.4,2-3.7,2.9-6.1,2.9
	c-2.5,0-4-1.1-6.6-3.2c-0.7-0.6-1.5-1.2-2.3-1.8l-4.2-2.2l-2.3-0.6l-2.1-0.2l-2.7,0.2l-2.1,0.6l-1.6,0.6l-2.5,1.4l-0.4,0.3
	c-0.9,0.6-1.7,1.3-2.5,1.9c-2.4,2-3.8,3-6.2,3c-2.6,0-4.2-1.2-6.8-3.3c-0.7-0.6-1.4-1.1-2.2-1.7c-1.8-1.3-3.8-2.2-5.9-2.7l-1-0.2
	l-0.6-0.1c-1.3-0.1-2.5-0.1-3.6,0.1l-1.5,0.3c-1.9,0.5-3.8,1.3-5.6,2.5c-0.9,0.7-1.7,1.3-2.5,2c-2.5,2-3.8,3-6.2,3
	c-2.5,0-3.9-1.1-6.5-3.1c-0.8-0.6-1.6-1.2-2.5-1.9l-2.3-1.3l-1.9-0.9l-2.3-0.6l-2-0.2l-2.8,0.2l-2.1,0.6l-1.6,0.7l-2.4,1.3l-0.4,0.3
	c-0.9,0.6-1.7,1.3-2.4,1.9c-2.5,2-3.9,3-6.3,3c-2.5,0-4-1.1-6.6-3.2c-0.7-0.6-1.5-1.2-2.3-1.8c-1.9-1.3-3.8-2.2-5.9-2.6l-0.9-0.2
	l-0.6-0.1c-1.3-0.1-2.4-0.1-3.6,0.1l-1.5,0.3c-2.1,0.5-4,1.3-5.6,2.5c-1,0.7-1.8,1.4-2.7,2c-2.4,2-3.7,2.9-6.1,2.9
	c-2.5,0-4.1-1.2-6.7-3.2l-2.2-1.7l-0.4-0.1c-2.8-2-6-3-9-3V444z M764,527.2c0,21.1-16.5,37.8-37.5,37.8h-173
	c-21,0-38.5-16.7-38.5-37.8v-49.5c1,0,2.4,0.4,3.8,1.3l2.1,1.5c2.9,2.3,6.6,5.1,12.4,5.1c5.6,0,9-2.7,11.7-4.9
	c0.7-0.6,1.4-1.1,2.2-1.7c0.7-0.5,1.5-0.9,2.4-1.1l1-0.2c0.3,0,0.7,0,1.1,0l0.6,0.1c0.9,0.2,1.8,0.6,2.6,1.2
	c0.6,0.4,1.3,0.9,1.9,1.5c2.9,2.3,6.5,5.1,12.2,5.1c5.7,0,9.2-2.8,11.9-5c0.6-0.5,1.2-1,1.8-1.4l1.6-0.9l0.6-0.2l1-0.3l0.8-0.1
	l0.8,0.1l0.7,0.2l2.5,1.3c0.6,0.4,1.2,0.9,1.8,1.4c2.8,2.2,6.4,5,12.1,5c5.7,0,9.1-2.8,11.9-5c0.7-0.6,1.4-1.1,2-1.5
	c0.8-0.6,1.7-1,2.5-1.1l1-0.2c0.3,0,0.7,0,1.2,0l0.6,0.1c0.9,0.2,1.8,0.6,2.6,1.2c0.6,0.4,1.2,0.9,1.8,1.4c2.9,2.3,6.5,5.2,12.4,5.2
	c5.7,0,9.1-2.8,11.9-5c0.6-0.5,1.2-1,1.8-1.4l1.6-0.9l0.6-0.3l1-0.3l0.7-0.1l0.8,0.1l0.6,0.2l2.5,1.3c0.6,0.4,1.1,0.8,1.7,1.3
	c2.9,2.3,6.5,5.1,12.3,5.1c5.6,0,9-2.7,11.7-4.9c0.7-0.6,1.4-1.1,2.2-1.7c0.7-0.5,1.5-0.9,2.4-1.1l1-0.2c0.3,0,0.7,0,1.1,0l0.6,0.1
	c0.9,0.2,1.8,0.6,2.6,1.2c0.6,0.4,1.3,0.9,1.9,1.5c2.9,2.3,6.5,5.1,12.2,5.1c5.8,0,9.2-2.8,11.9-5c0.6-0.5,1.2-1,1.8-1.4l1.6-0.9
	l0.5-0.2l1.1-0.3l0.7-0.1l0.7,0.1l0.7,0.2l2.5,1.3c0.6,0.4,1.2,0.9,1.8,1.4c2.8,2.2,6.4,5,12.2,5c5.3,0,8.5-2.3,11.4-4.7
	c0.3-0.2,0.6-0.5,0.9-0.7c0.5-0.4,0.8-0.8,1.3-1.2c1.1-0.8,2.2-1.3,3.2-1.4V527.2z"/>
<path d="M640,400L640,400z"/>
</svg>
