<svg id="Layer_1" data-name="Layer 1" xmlns="http://www.w3.org/2000/svg" viewBox="0 0 1280 800"><title>Artboard 1</title><path d="M793.17,196H487.43A24.34,24.34,0,0,0,463,220.35V520.29A24.65,24.65,0,0,0,487.43,545H521v58h37V545H723v58h36V545h34.17A25,25,0,0,0,818,520.29V220.35C818,206.84,806.68,196,793.17,196ZM549,594H530V545h19Zm201,0H732V545h18Zm59-73.71A16,16,0,0,1,793.17,536H487.43A15.65,15.65,0,0,1,472,520.29V466H809ZM809,457H472V220.35A15.33,15.33,0,0,1,487.43,205H793.17c8.54,0,15.83,6.8,15.83,15.35Z"/><path d="M658.4,321.57a32.58,32.58,0,1,0,8.16,45.35A32.61,32.61,0,0,0,658.4,321.57ZM626.1,368a24,24,0,0,1,23.66-41.55l-6.61,9.5a4.29,4.29,0,0,0,7.05,4.9l6.6-9.5A24,24,0,0,1,626.1,368Z"/><path d="M639.8,309.92a4.29,4.29,0,0,1-4.29-4.29V289.39a4.29,4.29,0,0,1,8.58,0v16.24A4.29,4.29,0,0,1,639.8,309.92Z"/><path d="M699.82,352.61H683.58a4.29,4.29,0,0,1,0-8.58h16.24a4.29,4.29,0,0,1,0,8.58Z"/><path d="M596,352.61H579.78a4.29,4.29,0,1,1,0-8.58H596a4.29,4.29,0,0,1,0,8.58Z"/><path d="M672.63,319.78a4.29,4.29,0,0,1-3-7.32L681.08,301a4.29,4.29,0,1,1,6.07,6.07l-11.49,11.48A4.25,4.25,0,0,1,672.63,319.78Z"/><path d="M606.7,319.78a4.28,4.28,0,0,1-3-1.25L592.18,307a4.29,4.29,0,1,1,6.07-6.07l11.48,11.49a4.29,4.29,0,0,1-3,7.32Z"/></svg>