<svg id="Layer_1" data-name="Layer 1" xmlns="http://www.w3.org/2000/svg" viewBox="0 0 1280 800"><title>Artboard 1</title><path d="M784.29,509.27c-1.13-1.89-2.26-3.77-3.35-5.63L773.7,491c-6.93-12.11-14.1-24.63-21.27-36.89a3.68,3.68,0,0,0-3.24-1.78,5.49,5.49,0,0,0-4.62,2.66c-13.6,23.44-27.41,47.38-40.38,69.9a1.7,1.7,0,0,0-.16.27A51,51,0,0,0,732,598a48.91,48.91,0,0,0,16,2.72c22.68,0,43.8-16.22,50.2-38.57C804,542.15,794,525.43,784.29,509.27Zm-72.22,18.5,27.49-47.69,8.89-15.42q3.62,6.25,7.23,12.55c3.52,6.12,7,12.25,10.57,18.33,2.17,3.76,4.59,7.63,6.93,11.37,6.18,9.88,12.56,20.09,16,30.6a40.43,40.43,0,0,1-5.74,36.84,43.54,43.54,0,0,1-40.34,18.34c-13.5-1.57-24.93-9.62-31.35-22.09A46.09,46.09,0,0,1,712.07,527.77Z"/><path d="M748.78,586.76a36.72,36.72,0,0,1-36.68-36.68,4.5,4.5,0,0,1,9,0,27.71,27.71,0,0,0,27.68,27.68,4.5,4.5,0,0,1,0,9Z"/><path d="M719.69,327.83,651,382V594.25a4.5,4.5,0,0,1-9,0V377.65l67.1-52.93L669.12,208H665v87.19l-62.87,36.47a4.08,4.08,0,0,1-2.32.6,5,5,0,0,1-2.58-.6L534,295.19V208h-3L490.46,324.73,557,377.65v216.6a4.5,4.5,0,0,1-9,0V382l-68.13-54.18L524.58,199H543v91l56.5,32.67L656,290V199h19.53Z"/><path d="M627,418.7V591h-9V418.7c0-.3.18-.62.17-.92a18.39,18.39,0,0,0-18.33-17.42,18.64,18.64,0,0,0-18.6,17.42c0,.3-.24.62-.24.92V591h-9V418.7c0-.15.23-.3.26-.45s.15-.32.16-.47a27.49,27.49,0,0,1,54.94,0c0,.15-.19.31-.18.47S627,418.55,627,418.7Z"/><path d="M572.46,418.25a2.3,2.3,0,0,0-.05.45v-.45Z"/><path d="M627.41,418.25v.45c0-.15,0-.3,0-.45Z"/></svg>