<?xml version="1.0" encoding="utf-8"?>
<!-- Generator: Adobe Illustrator 18.0.0, SVG Export Plug-In . SVG Version: 6.00 Build 0)  -->
<!DOCTYPE svg PUBLIC "-//W3C//DTD SVG 1.1//EN" "http://www.w3.org/Graphics/SVG/1.1/DTD/svg11.dtd">
<svg version="1.1" id="Layer_1" xmlns="http://www.w3.org/2000/svg" xmlns:xlink="http://www.w3.org/1999/xlink" x="0px" y="0px"
	 viewBox="0 0 1280 800" enable-background="new 0 0 1280 800" xml:space="preserve">
<path d="M825.1,200H454.7c-8,0-14.7,6.6-14.7,14.6V585c0,8,6.7,15,14.7,15h370.4c8,0,14.9-7,14.9-15V214.6
	C840,206.6,833.1,200,825.1,200z M642.1,286c-0.6-0.8-1.2-1.5-1.8-2.3c-0.5-0.8-0.9-1.6-1.1-2.5l-0.2-1c-0.1-0.3-0.1-0.7,0-1.1
	l0.1-0.6c0.2-0.9,0.6-1.8,1.3-2.8c0.5-0.7,1-1.3,1.5-2c2.4-3,5.4-6.8,5.4-12.8c0-6-2.9-9.6-5.3-12.5c-0.5-0.7-1-1.3-1.5-1.9l-1-1.7
	l-0.2-0.6l-0.3-1.1l-0.1-0.8l0.1-0.8l0.2-0.7l1.3-2.6c0.5-0.6,1-1.3,1.5-1.9c2.3-3,5.3-6.7,5.3-12.7c0-5.5-2.4-8.9-4.9-11.9
	c-0.3-0.3-0.5-0.7-0.8-1c-0.4-0.5-0.8-1.3-1.2-1.8h32.1c0.5,1.9,1.4,3.7,2.6,5.4c0.5,0.7,1,1.6,1.5,2.2c0.2,0.3,0.5,0.7,0.7,1
	l0.1,0.2c1.9,2.3,2.8,3.6,2.8,6.1c0,2.6-1.1,4.1-3.2,6.8c-0.6,0.8-1.3,1.6-2,2.6l-2.3,4.3l-0.7,2.4l-0.2,2.1l0.2,2.8l0.6,2.2
	l0.7,1.8l1.4,2.5l0.3,0.4c0.7,0.9,1.3,1.8,2,2.6c2.1,2.5,3.2,4,3.2,6.5c0,2.6-1.1,4.2-3.3,6.9c-0.6,0.8-1.2,1.5-1.9,2.4
	c-1.4,2-2.3,4-2.8,6.2l-0.2,1l-0.1,0.7c-0.1,1.4-0.1,2.5,0.1,3.7l0.3,1.5c0.5,2.2,1.4,4.1,2.6,5.9c0.7,1,1.4,1.9,2.1,2.8
	c2.1,2.5,3.1,3.9,3.1,6.4c0,2.6-1.1,4.2-3.3,6.9c-0.6,0.8-1.2,1.5-1.8,2.4l-2.3,4.4l-0.6,2.4l-0.2,2.2l0.2,2.8l0.6,2.2l0.6,1.7
	l1.5,2.7l0.3,0.4c0.7,0.9,1.4,1.8,2,2.6c0.3,0.3,0.6,0.7,0.8,1h-31.6c-1-2.9-2.8-5.1-4.3-7c-0.5-0.7-1-1.3-1.5-1.9l-0.9-1.6
	l-0.3-0.7l-0.3-1.1L639,317l0.1-0.8l0.2-0.7l1.4-2.6c0.4-0.6,0.9-1.2,1.3-1.7c2.4-3,5.4-6.8,5.4-12.9
	C647.3,292.4,644.4,288.9,642.1,286z M599.7,286c-0.6-0.8-1.2-1.5-1.8-2.3c-0.5-0.8-0.9-1.6-1.1-2.5l-0.2-1c0-0.3-0.1-0.7,0-1.1
	l0.1-0.6c0.2-0.9,0.6-1.8,1.3-2.8c0.5-0.7,1-1.3,1.5-2c2.4-3,5.4-6.8,5.4-12.8c0-6-2.9-9.6-5.3-12.5c-0.5-0.7-1-1.3-1.5-1.9l-1-1.7
	l-0.2-0.6l-0.3-1.1l-0.1-0.8l0.1-0.8l0.2-0.7l1.3-2.6c0.5-0.6,1-1.3,1.5-1.9c2.3-3,5.3-6.7,5.3-12.7c0-5.5-2.4-8.9-4.9-11.9
	c-0.3-0.3-0.5-0.7-0.8-1c-0.4-0.5-0.8-1.3-1.2-1.8h32.1c0.5,1.9,1.4,3.7,2.6,5.4c0.5,0.7,1,1.6,1.5,2.2c0.2,0.3,0.5,0.7,0.7,1
	l0.1,0.2c1.9,2.3,2.8,3.6,2.8,6.1c0,2.6-1.1,4.1-3.2,6.8c-0.6,0.8-1.3,1.6-2,2.6l-2.3,4.3l-0.7,2.4l-0.2,2.1l0.2,2.8l0.6,2.2
	l0.7,1.8l1.4,2.5l0.3,0.4c0.7,0.9,1.4,1.8,2,2.6c2.1,2.5,3.2,4,3.2,6.5c0,2.6-1.2,4.2-3.3,6.9c-0.6,0.8-1.2,1.5-1.8,2.4
	c-1.4,2-2.3,4-2.8,6.2l-0.2,1l-0.1,0.7c-0.1,1.4-0.1,2.5,0.1,3.7l0.3,1.5c0.5,2.2,1.4,4.1,2.6,5.9c0.7,1,1.4,1.9,2.1,2.8
	c2.1,2.5,3.1,3.9,3.1,6.4c0,2.6-1.2,4.2-3.3,6.9c-0.6,0.8-1.2,1.5-1.8,2.4l-2.3,4.4l-0.7,2.4l-0.2,2.2l0.2,2.8l0.6,2.2l0.7,1.7
	l1.5,2.7l0.3,0.4c0.7,0.9,1.4,1.8,2,2.6c0.3,0.3,0.6,0.7,0.8,1H604c-1-2.9-2.8-5.1-4.3-7c-0.5-0.7-1-1.3-1.5-1.9l-0.9-1.6l-0.3-0.7
	l-0.3-1.1l-0.1-0.8l0.1-0.8l0.2-0.7l1.4-2.6c0.4-0.6,0.9-1.2,1.3-1.7c2.4-3,5.4-6.8,5.4-12.9C604.9,292.4,602,288.9,599.7,286z
	 M514.8,360.5c-0.6-0.7-1.1-1.4-1.6-2.1c-0.6-0.9-1-1.7-1.2-2.6l-0.2-1c0-0.3-0.1-0.7,0-1.2l0.1-0.6c0.2-1,0.7-1.9,1.3-2.8
	c0.5-0.6,1-1.3,1.5-1.9c2.4-3.1,5.5-6.8,5.5-12.9c0-6-2.9-9.5-5.3-12.4c-0.5-0.7-1.1-1.3-1.5-1.9l-0.9-1.6l-0.3-0.7l-0.3-1.1
	l-0.1-0.8l0.1-0.8l0.2-0.7l1.4-2.6c0.4-0.6,0.9-1.2,1.3-1.7c2.4-3,5.4-6.8,5.4-12.9c0-5.9-2.9-9.4-5.2-12.3
	c-0.6-0.8-1.2-1.5-1.8-2.3c-0.5-0.8-0.9-1.6-1.1-2.5l-0.2-1c0-0.3-0.1-0.7,0-1.1l0.1-0.6c0.2-0.9,0.6-1.8,1.3-2.8
	c0.5-0.7,1-1.3,1.5-2c2.4-3,5.4-6.8,5.4-12.8c0-6-2.9-9.6-5.3-12.5c-0.5-0.7-1-1.3-1.5-1.9l-1-1.7l-0.2-0.6l-0.3-1.1l-0.1-0.8
	l0.1-0.8l0.2-0.7l1.3-2.6c0.5-0.6,1-1.3,1.5-1.9c2.3-3,5.3-6.7,5.3-12.7c0-5.5-2.4-8.9-4.9-11.9c-0.3-0.3-0.5-0.7-0.8-1
	c-0.4-0.5-0.8-1.3-1.2-1.8h32.1c0.5,1.9,1.4,3.7,2.6,5.4c0.5,0.7,1,1.6,1.5,2.2c0.2,0.3,0.5,0.7,0.7,1l0.1,0.2
	c1.9,2.3,2.8,3.6,2.8,6.1c0,2.6-1.1,4.1-3.2,6.8c-0.6,0.8-1.3,1.6-1.9,2.6l-2.3,4.3l-0.7,2.4l-0.2,2.1l0.2,2.8l0.6,2.2l0.7,1.8
	l1.4,2.5l0.3,0.4c0.7,0.9,1.4,1.8,2,2.6c2.1,2.5,3.2,4,3.2,6.5c0,2.6-1.2,4.2-3.3,6.9c-0.6,0.8-1.2,1.5-1.9,2.4
	c-1.4,2-2.3,4-2.8,6.2l-0.2,1l-0.1,0.7c-0.1,1.4-0.1,2.5,0.1,3.7l0.3,1.5c0.5,2.2,1.4,4.1,2.6,5.9c0.7,1,1.4,1.9,2.1,2.8
	c2.1,2.5,3.1,3.9,3.1,6.4c0,2.6-1.2,4.2-3.3,6.9c-0.6,0.8-1.2,1.5-1.8,2.4l-2.3,4.4l-0.7,2.4l-0.2,2.2l0.2,2.8l0.6,2.2l0.7,1.7
	l1.5,2.7l0.3,0.4c0.7,0.9,1.4,1.8,2,2.6c2.1,2.5,3.1,4,3.1,6.5c0,2.7-1.3,4.3-3.4,7.1c-0.6,0.7-1.2,1.5-1.8,2.3
	c-1.3,1.9-2.3,4-2.8,6.2l-0.2,1l-0.1,0.7c-0.1,1.4-0.1,2.6,0.1,3.8l0.3,1.6c0.5,2,1.3,4,2.6,5.8c0.7,1,1.4,1.8,2,2.6
	c2.1,2.6,3.1,3.9,3.1,6.5c0,2.6-1.1,4.1-3.2,6.8c-0.6,0.8-1.3,1.6-1.9,2.6l-1.3,2.4l-1,1.9l-0.7,2.4l-0.2,2.1l0.2,2.9l0.6,2.2
	l0.7,1.7l1.4,2.5l0.3,0.4c0.7,0.9,1.3,1.8,2,2.5c2.1,2.6,3.2,4,3.2,6.6c0,2.6-1.1,4.2-3.3,6.9c-0.6,0.8-1.2,1.5-1.9,2.4
	c-1.4,2-2.3,4-2.8,6.2l-0.2,1l-0.1,0.7c-0.1,1.4-0.1,2.5,0.1,3.7l0.3,1.5c0.5,2.2,1.4,4.1,2.6,5.8c0.7,1,1.4,1.9,2.1,2.8
	c2.1,2.5,3.1,3.9,3.1,6.4c0,2.6-1.2,4.2-3.4,7l-1.8,2.2l-0.1-0.3c-0.9,1.2-1.5,2.4-2.1,3.6h-31c2.3-3,5.2-6.7,5.2-12.6
	c0-5.9-2.9-9.4-5.2-12.2c-0.6-0.8-1.2-1.5-1.8-2.3c-0.5-0.8-0.9-1.6-1.1-2.5l-0.2-1c0-0.3-0.1-0.7,0-1.1l0.1-0.6
	c0.2-0.9,0.6-1.8,1.3-2.8c0.5-0.7,1-1.3,1.5-2c2.4-3,5.4-6.7,5.4-12.8c0-6-2.9-9.6-5.3-12.5c-0.5-0.7-1-1.3-1.5-1.9l-1-1.7l-0.3-0.6
	l-0.3-1l-0.1-0.8l0.1-0.8l0.2-0.7l1.3-2.6c0.5-0.6,1-1.3,1.5-1.9c2.3-3,5.3-6.7,5.3-12.7C520.1,366.9,517.2,363.4,514.8,360.5z
	 M472.5,360.5c-0.6-0.7-1.2-1.4-1.6-2.1c-0.6-0.9-1-1.7-1.2-2.6l-0.2-1c0-0.3-0.1-0.7,0-1.2l0.1-0.6c0.2-1,0.7-1.9,1.3-2.8
	c0.5-0.6,1-1.3,1.4-1.9c2.4-3.1,5.5-6.8,5.5-12.9c0-6-2.9-9.5-5.3-12.4c-0.5-0.7-1-1.3-1.5-1.9l-0.9-1.6l-0.3-0.7l-0.3-1.1l-0.1-0.8
	l0.1-0.8l0.2-0.7l1.4-2.6c0.4-0.6,0.9-1.2,1.3-1.7c2.4-3,5.4-6.8,5.4-12.9c0-5.9-2.9-9.4-5.2-12.3c-0.6-0.8-1.2-1.5-1.8-2.3
	c-0.6-0.8-0.9-1.6-1.1-2.5l-0.2-1c0-0.3-0.1-0.7,0-1.1l0.1-0.6c0.2-0.9,0.6-1.8,1.3-2.8c0.5-0.6,1-1.3,1.5-2c2.4-3,5.4-6.8,5.4-12.8
	c0-6-2.9-9.6-5.3-12.5c-0.5-0.7-1-1.3-1.5-1.9l-1-1.7l-0.2-0.6l-0.3-1.1l-0.1-0.8l0.1-0.8l0.2-0.7l1.3-2.6c0.5-0.6,1-1.3,1.5-1.9
	c2.3-3,5.3-6.7,5.3-12.7c0-5.5-2.4-8.9-4.9-11.9c-0.3-0.3-0.5-0.7-0.8-1c-0.4-0.5-0.8-1.3-1.2-1.8H503c0.5,1.9,1.4,3.7,2.6,5.4
	c0.5,0.7,1,1.6,1.6,2.2c0.2,0.3,0.5,0.7,0.7,1l0.1,0.2c1.9,2.3,2.8,3.6,2.8,6.1c0,2.6-1.1,4.1-3.2,6.8c-0.6,0.8-1.3,1.6-2,2.6
	l-2.3,4.3l-0.7,2.4l-0.2,2.1l0.2,2.8l0.6,2.2l0.7,1.8l1.4,2.5l0.3,0.4c0.7,0.9,1.3,1.8,2,2.6c2.1,2.5,3.2,4,3.2,6.5
	c0,2.6-1.2,4.2-3.3,6.9c-0.6,0.8-1.2,1.5-1.8,2.4c-1.4,2-2.3,4-2.8,6.2l-0.2,1l-0.1,0.7c-0.1,1.4-0.1,2.5,0.1,3.7l0.3,1.5
	c0.5,2.2,1.4,4.1,2.6,5.9c0.7,1,1.4,1.9,2.1,2.8c2.1,2.5,3.1,3.9,3.1,6.4c0,2.6-1.2,4.2-3.3,6.9c-0.6,0.8-1.2,1.5-1.8,2.4l-2.3,4.4
	l-0.7,2.4l-0.2,2.2l0.2,2.8l0.6,2.2l0.7,1.7l1.5,2.7l0.3,0.4c0.7,0.9,1.4,1.8,2,2.6c2.1,2.5,3.1,4,3.1,6.5c0,2.7-1.3,4.3-3.4,7.1
	c-0.6,0.7-1.2,1.5-1.8,2.3c-1.3,1.9-2.3,4-2.8,6.2l-0.2,1l-0.1,0.7c-0.1,1.4-0.1,2.6,0.1,3.8l0.4,1.6c0.5,2,1.3,4,2.6,5.8
	c0.7,1,1.4,1.8,2,2.6c2.1,2.6,3.1,3.9,3.1,6.5c0,2.6-1.1,4.1-3.2,6.8c-0.6,0.8-1.3,1.6-2,2.6l-1.3,2.4l-1,1.9l-0.7,2.4l-0.2,2.1
	l0.2,2.9l0.6,2.2l0.7,1.7l1.4,2.5l0.3,0.4c0.7,0.9,1.3,1.8,2,2.5c2.1,2.6,3.2,4,3.2,6.6c0,2.6-1.1,4.2-3.3,6.9
	c-0.6,0.8-1.2,1.5-1.9,2.4c-1.4,2-2.3,4-2.8,6.2l-0.2,1l-0.1,0.7c-0.1,1.4-0.1,2.5,0.1,3.7l0.3,1.5c0.5,2.2,1.4,4.1,2.6,5.8
	c0.7,1,1.4,1.9,2.1,2.8c2.1,2.5,3.1,3.9,3.1,6.4c0,2.6-1.2,4.2-3.3,7l-1.8,2.2l-0.1-0.3c-0.9,1.2-1.5,2.4-2.1,3.6h-31
	c2.4-3,5.2-6.7,5.2-12.6c0-5.9-2.9-9.4-5.2-12.2c-0.6-0.8-1.2-1.5-1.8-2.3c-0.6-0.8-0.9-1.6-1.1-2.5l-0.2-1c0-0.3-0.1-0.7,0-1.1
	l0.1-0.6c0.2-0.9,0.6-1.8,1.3-2.8c0.5-0.7,1-1.3,1.5-2c2.4-3,5.4-6.7,5.4-12.8c0-6-2.9-9.6-5.3-12.5c-0.5-0.7-1-1.3-1.5-1.9l-1-1.7
	l-0.3-0.6l-0.3-1l-0.1-0.8l0.1-0.8l0.2-0.7l1.3-2.6c0.5-0.6,1-1.3,1.5-1.9c2.3-3,5.3-6.7,5.3-12.7
	C477.7,366.9,474.8,363.4,472.5,360.5z M449,214.6c0-3,2.7-5.6,5.7-5.6h5.9c0.5,1.9,1.4,3.7,2.6,5.4c0.5,0.7,1,1.6,1.5,2.2
	c0.2,0.3,0.5,0.7,0.7,1l0.1,0.2c1.9,2.3,2.8,3.6,2.8,6.1c0,2.6-1.1,4.1-3.2,6.8c-0.6,0.8-1.3,1.6-2,2.6l-2.3,4.3l-0.7,2.4l-0.2,2.1
	l0.2,2.8l0.6,2.2l0.7,1.8l1.4,2.5l0.3,0.4c0.7,0.9,1.3,1.8,2,2.6c2.1,2.5,3.2,4,3.2,6.5c0,2.6-1.1,4.2-3.3,6.9
	c-0.6,0.8-1.2,1.5-1.9,2.4c-1.4,2-2.3,4-2.8,6.2l-0.2,1l-0.1,0.7c-0.1,1.4-0.1,2.5,0.1,3.7l0.3,1.5c0.5,2.2,1.4,4.1,2.6,5.9
	c0.7,1,1.4,1.9,2.1,2.8c2.1,2.5,3.1,3.9,3.1,6.4c0,2.6-1.1,4.2-3.3,6.9c-0.6,0.8-1.2,1.5-1.8,2.4l-2.3,4.4l-0.6,2.4l-0.2,2.2
	l0.2,2.8l0.6,2.2l0.6,1.7l1.5,2.7l0.3,0.4c0.7,0.9,1.4,1.8,2,2.6c2.1,2.5,3.1,4,3.1,6.5c0,2.7-1.2,4.3-3.4,7.1
	c-0.6,0.7-1.2,1.5-1.8,2.3c-1.3,1.9-2.3,4-2.8,6.2l-0.2,1l-0.1,0.7c-0.1,1.4-0.1,2.6,0.1,3.8l0.3,1.6c0.5,2,1.4,4,2.6,5.8
	c0.7,1,1.4,1.8,2,2.6c2.1,2.6,3.1,3.9,3.1,6.5c0,2.6-1.1,4.1-3.2,6.8c-0.6,0.8-1.3,1.6-2,2.6l-1.3,2.4l-1,1.9l-0.6,2.4l-0.2,2.1
	l0.2,2.9l0.6,2.2l0.7,1.7l1.4,2.5l0.3,0.4c0.7,0.9,1.3,1.8,2,2.5c2.1,2.6,3.2,4,3.2,6.6c0,2.6-1.1,4.2-3.3,6.9
	c-0.6,0.8-1.2,1.6-1.9,2.4c-1.4,2-2.3,4-2.8,6.2l-0.2,1l-0.1,0.7c-0.1,1.4-0.1,2.5,0.1,3.7l0.3,1.5c0.5,2.2,1.4,4.1,2.6,5.8
	c0.7,1,1.4,1.9,2.1,2.8c2.1,2.5,3.1,3.9,3.1,6.4c0,2.6-1.2,4.2-3.3,7l-1.8,2.2l-0.1-0.3c-0.9,1.2-1.5,2.4-2.1,3.6h-12V214.6z
	 M570,591H454.7c-3,0-5.7-3-5.7-6V469h121V591z M570,460h-12.7c2.4-3,5.2-6.7,5.2-12.6c0-5.9-2.9-9.4-5.2-12.2
	c-0.6-0.8-1.2-1.5-1.8-2.3c-0.5-0.8-0.9-1.6-1.1-2.5l-0.2-1c0-0.3-0.1-0.7,0-1.1l0.1-0.6c0.2-0.9,0.6-1.8,1.3-2.8
	c0.5-0.7,1-1.3,1.5-2c2.4-3,5.4-6.7,5.4-12.8c0-6-3-9.6-5.3-12.5c-0.5-0.7-1-1.3-1.5-1.9l-0.9-1.7l-0.3-0.6l-0.3-1l-0.1-0.8l0.1-0.8
	l0.2-0.7l1.3-2.6c0.4-0.6,0.9-1.3,1.5-1.9c2.3-3,5.3-6.7,5.3-12.7c0-6-2.9-9.5-5.3-12.4c-0.6-0.7-1.2-1.4-1.6-2.1
	c-0.6-0.9-1-1.7-1.2-2.6l-0.2-1c0-0.3-0.1-0.7,0-1.2l0.1-0.6c0.2-1,0.7-1.9,1.3-2.8c0.5-0.6,1-1.3,1.5-1.9c2.4-3.1,5.5-6.8,5.5-12.9
	c0-6-2.9-9.5-5.3-12.4c-0.5-0.7-1-1.3-1.5-1.9l-0.9-1.6l-0.3-0.7l-0.3-1.1l-0.1-0.8l0.1-0.8l0.2-0.7l1.4-2.6
	c0.4-0.6,0.9-1.2,1.3-1.7c2.4-3,5.4-6.8,5.4-12.9c0-5.9-2.9-9.4-5.2-12.3c-0.6-0.8-1.2-1.5-1.8-2.3c-0.5-0.8-0.9-1.6-1.1-2.5l-0.2-1
	c0-0.3-0.1-0.7,0-1.1l0.1-0.6c0.2-0.9,0.6-1.8,1.3-2.8c0.5-0.7,1-1.3,1.5-2c2.4-3,5.4-6.8,5.4-12.8c0-6-2.9-9.6-5.3-12.5
	c-0.5-0.7-1-1.3-1.5-1.9l-0.9-1.7l-0.2-0.6l-0.3-1.1l-0.1-0.8l0.1-0.8l0.2-0.7l1.3-2.6c0.4-0.6,0.9-1.3,1.5-1.9
	c2.3-3,5.3-6.7,5.3-12.7c0-5.5-2.4-8.9-4.9-11.9c-0.3-0.3-0.5-0.7-0.8-1c-0.4-0.5-0.8-1.3-1.2-1.8h32.1c0.5,1.9,1.4,3.7,2.6,5.4
	c0.5,0.7,1,1.6,1.5,2.2c0.2,0.3,0.5,0.7,0.7,1l0.1,0.2c1.9,2.3,2.8,3.6,2.8,6.1c0,2.6-1.1,4.1-3.2,6.8c-0.6,0.8-1.3,1.6-2,2.6
	l-2.3,4.3l-0.7,2.4l-0.2,2.1l0.2,2.8l0.6,2.2l0.7,1.8l1.4,2.5l0.3,0.4c0.7,0.9,1.3,1.8,2,2.6c2.1,2.5,3.2,4,3.2,6.5
	c0,2.6-1.1,4.2-3.3,6.9c-0.6,0.8-1.2,1.5-1.8,2.4c-1.4,2-2.3,4-2.8,6.2l-0.2,1l-0.1,0.7c-0.1,1.4-0.1,2.5,0.1,3.7l0.3,1.5
	c0.5,2.2,1.4,4.1,2.6,5.9c0.7,1,1.4,1.9,2.1,2.8c2.1,2.5,3.1,3.9,3.1,6.4c0,2.6-1.1,4.2-3.3,6.9c-0.6,0.8-1.2,1.5-1.8,2.4l-2.3,4.4
	l-0.6,2.4l-0.2,2.2l0.2,2.8l0.6,2.2l0.6,1.7l1.5,2.7l0.3,0.4c0.7,0.9,1.4,1.8,2,2.6c0.3,0.3,0.6,0.7,0.8,1H570V460z M700,591H579
	V469h121V591z M700,460H579V339h121V460z M700,330h-11.2c-1-2.9-2.8-5.1-4.3-7c-0.5-0.7-1-1.3-1.5-1.9l-0.9-1.6l-0.3-0.7l-0.3-1.1
	l-0.1-0.8l0.1-0.8l0.2-0.7l1.4-2.6c0.4-0.6,0.9-1.2,1.3-1.7c2.4-3,5.4-6.8,5.4-12.9c0-5.9-2.9-9.4-5.2-12.3
	c-0.6-0.8-1.2-1.5-1.8-2.3c-0.6-0.8-0.9-1.6-1.1-2.5l-0.2-1c0-0.3-0.1-0.7,0-1.1l0.1-0.6c0.2-0.9,0.6-1.8,1.3-2.8
	c0.5-0.6,1-1.3,1.5-2c2.4-3,5.4-6.8,5.4-12.8c0-6-2.9-9.6-5.3-12.5c-0.5-0.7-1-1.3-1.5-1.9l-1-1.7l-0.2-0.6l-0.3-1.1l-0.1-0.8
	l0.1-0.8l0.2-0.7l1.3-2.6c0.5-0.6,1-1.3,1.5-1.9c2.3-3,5.3-6.7,5.3-12.7c0-5.5-2.4-8.9-4.9-11.9c-0.3-0.3-0.5-0.7-0.8-1
	c-0.4-0.5-0.8-1.3-1.2-1.8H700V330z M831,585c0,3-2.9,6-5.9,6H709V469h122V585z M831,460H709V339h122V460z M831,330H709V209h116.1
	c3,0,5.9,2.6,5.9,5.6V330z"/>
</svg>
